<?xml version="1.0" encoding="UTF-8"?>
<svg width="22px" height="13px" viewBox="0 0 22 13" version="1.1" xmlns="http://www.w3.org/2000/svg" xmlns:xlink="http://www.w3.org/1999/xlink">
    <!-- Generator: Sketch 55.2 (78181) - https://sketchapp.com -->
    <title></title>
    <desc>Created with Sketch.</desc>
    <g id="EDGE-Operator" stroke="none" stroke-width="1" fill="none" fill-rule="evenodd">
        <g id="Sygnum-control-Center_reset-password_new" transform="translate(-878.000000, -404.000000)" fill="#808080" fill-rule="nonzero">
            <g id="Group" transform="translate(520.000000, 380.000000)">
                <g id="eye" transform="translate(358.000000, 24.000000)">
                    <path d="M21.6018599,5.42683219 C20.3719572,3.78656164 18.7788405,2.42979795 16.9948288,1.50332534 C15.1737082,0.557575342 13.2145525,0.066869863 11.1693658,0.0411369863 C11.1130389,0.0395342466 10.8868755,0.0395342466 10.8305486,0.0411369863 C8.78540467,0.0669143836 6.82620623,0.557575342 5.0050856,1.50332534 C3.22107393,2.42979795 1.6280428,3.78651712 0.398097276,5.42683219 C-0.0757159533,6.05871233 -0.0757159533,6.94133219 0.398097276,7.57321233 C1.628,9.21348288 3.22107393,10.5702466 5.0050856,11.4967192 C6.82620623,12.4424692 8.78536187,12.9331747 10.8305486,12.9589075 C10.8868755,12.9605103 11.1130389,12.9605103 11.1693658,12.9589075 C13.2145097,12.9331301 15.1737082,12.4424692 16.9948288,11.4967192 C18.7788405,10.5702466 20.3719144,9.2135274 21.6018599,7.57321233 C22.0756732,6.94124315 22.0756732,6.05871233 21.6018599,5.42683219 Z M5.40335409,10.6670788 C3.73751751,9.80195548 2.24982101,8.53490068 1.10107004,7.00290411 C0.879058366,6.70679795 0.879058366,6.29324658 1.10107004,5.99714041 C2.24977821,4.46514384 3.73747471,3.19808904 5.40335409,2.33296575 C5.87648249,2.08730137 6.35962646,1.87484932 6.85171595,1.6949863 C5.58573152,2.87869863 4.78812451,4.59416438 4.78812451,6.5 C4.78812451,8.40592466 5.58577432,10.121524 6.85188716,11.3051918 C6.35979767,11.1253288 5.87652529,10.9127877 5.40335409,10.6670788 Z M11,12.0340377 C8.06629572,12.0340377 5.67959533,9.55148288 5.67959533,6.49995548 C5.67959533,3.44842808 8.06629572,0.965917808 11,0.965917808 C13.9337043,0.965917808 16.3204047,3.4484726 16.3204047,6.5 C16.3204047,9.5515274 13.9337043,12.0340377 11,12.0340377 Z M20.89893,7.00285959 C19.7502218,8.53485616 18.2625253,9.80191096 16.5966459,10.6670342 C16.1240739,10.9124315 15.6412296,11.1239486 15.1497393,11.3036336 C16.4148677,10.1199658 17.2118755,8.40503425 17.2118755,6.49995548 C17.2118755,4.59385274 16.4140545,2.87816438 15.147856,1.69445205 C15.6400739,1.87435959 16.1234319,2.08707877 16.5966887,2.33287671 C18.2625253,3.198 19.7502218,4.46505479 20.8989728,5.99705137 C21.1209416,6.29320205 21.1209416,6.70675342 20.89893,7.00285959 Z" id="Shape"></path>
                    <path d="M11,4.13168493 C9.74454475,4.13168493 8.72317121,5.19407877 8.72317121,6.49995548 C8.72317121,7.80583219 9.74454475,8.86822603 11,8.86822603 C12.2554553,8.86822603 13.2768288,7.80583219 13.2768288,6.49995548 C13.2768288,5.19407877 12.2554981,4.13168493 11,4.13168493 Z M11,7.94099658 C10.2361206,7.94099658 9.61459922,7.29460274 9.61459922,6.49995548 C9.61459922,5.70535274 10.236035,5.0589589 11,5.0589589 C11.7638794,5.0589589 12.385358,5.70535274 12.385358,6.49995548 C12.3854008,7.29460274 11.7638794,7.94099658 11,7.94099658 Z" id="Shape"></path>
                </g>
            </g>
        </g>
    </g>
</svg>