<?xml version="1.0" encoding="UTF-8"?>
<svg width="22px" height="21px" viewBox="0 0 22 21" version="1.1" xmlns="http://www.w3.org/2000/svg" xmlns:xlink="http://www.w3.org/1999/xlink">
    <!-- Generator: Sketch 55.2 (78181) - https://sketchapp.com -->
    <title></title>
    <desc>Created with Sketch.</desc>
    <g id="EDGE-Operator" stroke="none" stroke-width="1" fill="none" fill-rule="evenodd">
        <g id="Sygnum-control-Center_reset-password_new" transform="translate(-878.000000, -471.000000)" fill="#808080" fill-rule="nonzero">
            <g id="Group-Copy" transform="translate(520.000000, 451.000000)">
                <g id="eye" transform="translate(358.000000, 20.000000)">
                    <path d="M9.54361237,4.11993197 C9.96840878,4.07289053 10.3975525,4.04659456 10.8305486,4.04113699 C10.8868755,4.03953425 11.1130389,4.03953425 11.1693658,4.04113699 C13.2145525,4.06686986 15.1737082,4.55757534 16.9948288,5.50332534 C18.7788405,6.42979795 20.3719572,7.78656164 21.6018599,9.42683219 C22.0756732,10.0587123 22.0756732,10.9412432 21.6018599,11.5732123 C20.3719144,13.2135274 18.7788405,14.5702466 16.9948288,15.4967192 C16.7241943,15.6372659 16.4505104,15.7677622 16.1739483,15.8881759 L15.7006525,15.0872274 C16.0030512,14.960016 16.3018473,14.8201173 16.5966459,14.6670342 C18.2625253,13.801911 19.7502218,12.5348562 20.89893,11.0028596 C21.1209416,10.7067534 21.1209416,10.2932021 20.8989728,9.99705137 C19.7502218,8.46505479 18.2625253,7.198 16.5966887,6.33287671 C16.1234319,6.08707877 15.6400739,5.87435959 15.147856,5.69445205 C16.4140545,6.87816438 17.2118755,8.59385274 17.2118755,10.4999555 C17.2118755,12.183328 16.5895793,13.7182353 15.5718943,14.8693327 L15.0838256,14.0433843 C15.8554902,13.0827699 16.3204047,11.8468055 16.3204047,10.5 C16.3204047,7.4484726 13.9337043,4.96591781 11,4.96591781 C10.6902632,4.96591781 10.3866239,4.99359002 10.091247,5.04668251 L9.54361237,4.11993197 Z M7.47218346,4.5236171 L8.20490039,5.79272006 C6.69037346,6.76923858 5.67959533,8.5141064 5.67959533,10.4999555 C5.67959533,13.5514829 8.06629572,16.0340377 11,16.0340377 C11.9771835,16.0340377 12.893678,15.758608 13.6814966,15.2784629 L14.3944183,16.5132795 C13.3498358,16.7959541 12.2720943,16.9450085 11.1693658,16.9589075 C11.1130389,16.9605103 10.8868755,16.9605103 10.8305486,16.9589075 C8.78536187,16.9331747 6.82620623,16.4424692 5.0050856,15.4967192 C3.22107393,14.5702466 1.628,13.2134829 0.398097276,11.5732123 C-0.0757159533,10.9413322 -0.0757159533,10.0587123 0.398097276,9.42683219 C1.6280428,7.78651712 3.22107393,6.42979795 5.0050856,5.50332534 C5.80244037,5.08924059 6.62626488,4.76239715 7.47218346,4.5236171 Z M12.1146195,12.5645522 C11.7849702,12.7578618 11.4046436,12.868226 11,12.868226 C9.74454475,12.868226 8.72317121,11.8058322 8.72317121,10.4999555 C8.72317121,9.66423523 9.14148491,8.92823582 9.77175876,8.50659837 L12.1146195,12.5645522 Z M5.40335409,14.6670788 C5.87652529,14.9127877 6.35979767,15.1253288 6.85188716,15.3051918 C5.58577432,14.121524 4.78812451,12.4059247 4.78812451,10.5 C4.78812451,8.59416438 5.58573152,6.87869863 6.85171595,5.6949863 C6.35962646,5.87484932 5.87648249,6.08730137 5.40335409,6.33296575 C3.73747471,7.19808904 2.24977821,8.46514384 1.10107004,9.99714041 C0.879058366,10.2932466 0.879058366,10.7067979 1.10107004,11.0029041 C2.24982101,12.5349007 3.73751751,13.8019555 5.40335409,14.6670788 Z M4.68228577,0.811575403 L5.53033387,0.281656139 L17.0427523,20.0735817 L16.1947042,20.603501 L4.68228577,0.811575403 Z" id="Combined-Shape"></path>
                </g>
            </g>
        </g>
    </g>
</svg>